<mxfile host="app.diagrams.net" modified="2024-02-08T21:16:07.276Z" agent="Mozilla/5.0 (Windows NT 10.0; Win64; x64) AppleWebKit/537.36 (KHTML, like Gecko) Chrome/121.0.0.0 Safari/537.36" etag="LBcPd_Y3ccf04U-5XJjN" version="23.1.2" type="device">
  <diagram name="Page-1" id="--bzlvZ6d_QbImSYI1PD">
    <mxGraphModel dx="1050" dy="530" grid="1" gridSize="10" guides="1" tooltips="1" connect="1" arrows="1" fold="1" page="1" pageScale="1" pageWidth="850" pageHeight="1100" math="0" shadow="0">
      <root>
        <mxCell id="0" />
        <mxCell id="1" parent="0" />
        <mxCell id="bqqj-wdb450K67-0vMmF-1" value="" style="rounded=1;whiteSpace=wrap;html=1;" vertex="1" parent="1">
          <mxGeometry x="190" y="219" width="120" height="60" as="geometry" />
        </mxCell>
        <mxCell id="bqqj-wdb450K67-0vMmF-2" value="" style="rounded=1;whiteSpace=wrap;html=1;" vertex="1" parent="1">
          <mxGeometry x="380" y="159" width="120" height="60" as="geometry" />
        </mxCell>
        <mxCell id="bqqj-wdb450K67-0vMmF-3" value="" style="rounded=1;whiteSpace=wrap;html=1;" vertex="1" parent="1">
          <mxGeometry x="380" y="288" width="120" height="60" as="geometry" />
        </mxCell>
        <mxCell id="bqqj-wdb450K67-0vMmF-4" value="" style="rounded=1;whiteSpace=wrap;html=1;" vertex="1" parent="1">
          <mxGeometry x="380" y="410" width="120" height="60" as="geometry" />
        </mxCell>
        <mxCell id="bqqj-wdb450K67-0vMmF-5" value="" style="rounded=1;whiteSpace=wrap;html=1;" vertex="1" parent="1">
          <mxGeometry x="580" y="219" width="120" height="60" as="geometry" />
        </mxCell>
        <mxCell id="bqqj-wdb450K67-0vMmF-6" value="" style="sketch=0;outlineConnect=0;fontColor=#232F3E;gradientColor=none;fillColor=#232F3D;strokeColor=none;dashed=0;verticalLabelPosition=bottom;verticalAlign=top;align=center;html=1;fontSize=12;fontStyle=0;aspect=fixed;pointerEvents=1;shape=mxgraph.aws4.user;" vertex="1" parent="1">
          <mxGeometry x="30" y="210" width="78" height="78" as="geometry" />
        </mxCell>
        <mxCell id="bqqj-wdb450K67-0vMmF-7" value="angular-website" style="text;html=1;strokeColor=none;fillColor=none;align=center;verticalAlign=middle;whiteSpace=wrap;rounded=0;" vertex="1" parent="1">
          <mxGeometry x="220" y="234" width="60" height="30" as="geometry" />
        </mxCell>
        <mxCell id="bqqj-wdb450K67-0vMmF-8" value="java_organizer" style="text;html=1;strokeColor=none;fillColor=none;align=center;verticalAlign=middle;whiteSpace=wrap;rounded=0;" vertex="1" parent="1">
          <mxGeometry x="410" y="174" width="60" height="30" as="geometry" />
        </mxCell>
        <mxCell id="bqqj-wdb450K67-0vMmF-9" value="java_grading" style="text;html=1;strokeColor=none;fillColor=none;align=center;verticalAlign=middle;whiteSpace=wrap;rounded=0;" vertex="1" parent="1">
          <mxGeometry x="410" y="303" width="60" height="30" as="geometry" />
        </mxCell>
        <mxCell id="bqqj-wdb450K67-0vMmF-10" value="database" style="text;html=1;strokeColor=none;fillColor=none;align=center;verticalAlign=middle;whiteSpace=wrap;rounded=0;" vertex="1" parent="1">
          <mxGeometry x="410" y="425" width="60" height="30" as="geometry" />
        </mxCell>
        <mxCell id="bqqj-wdb450K67-0vMmF-11" value="mqtt_broker" style="text;html=1;strokeColor=none;fillColor=none;align=center;verticalAlign=middle;whiteSpace=wrap;rounded=0;" vertex="1" parent="1">
          <mxGeometry x="610" y="234" width="60" height="30" as="geometry" />
        </mxCell>
        <mxCell id="bqqj-wdb450K67-0vMmF-12" value="" style="endArrow=classic;html=1;rounded=0;entryX=0;entryY=0.5;entryDx=0;entryDy=0;" edge="1" parent="1" source="bqqj-wdb450K67-0vMmF-6" target="bqqj-wdb450K67-0vMmF-1">
          <mxGeometry width="50" height="50" relative="1" as="geometry">
            <mxPoint x="400" y="270" as="sourcePoint" />
            <mxPoint x="450" y="220" as="targetPoint" />
          </mxGeometry>
        </mxCell>
        <mxCell id="bqqj-wdb450K67-0vMmF-20" value="localhost:4200" style="edgeLabel;html=1;align=center;verticalAlign=middle;resizable=0;points=[];" vertex="1" connectable="0" parent="bqqj-wdb450K67-0vMmF-12">
          <mxGeometry x="-0.2438" y="1" relative="1" as="geometry">
            <mxPoint x="4" y="-8" as="offset" />
          </mxGeometry>
        </mxCell>
        <mxCell id="bqqj-wdb450K67-0vMmF-13" value="" style="endArrow=classic;html=1;rounded=0;exitX=0.5;exitY=0;exitDx=0;exitDy=0;entryX=0;entryY=0.5;entryDx=0;entryDy=0;" edge="1" parent="1" source="bqqj-wdb450K67-0vMmF-1" target="bqqj-wdb450K67-0vMmF-2">
          <mxGeometry width="50" height="50" relative="1" as="geometry">
            <mxPoint x="400" y="270" as="sourcePoint" />
            <mxPoint x="450" y="220" as="targetPoint" />
          </mxGeometry>
        </mxCell>
        <mxCell id="bqqj-wdb450K67-0vMmF-21" value="/submit" style="edgeLabel;html=1;align=center;verticalAlign=middle;resizable=0;points=[];" vertex="1" connectable="0" parent="bqqj-wdb450K67-0vMmF-13">
          <mxGeometry x="-0.0892" y="2" relative="1" as="geometry">
            <mxPoint x="11" y="1" as="offset" />
          </mxGeometry>
        </mxCell>
        <mxCell id="bqqj-wdb450K67-0vMmF-14" value="" style="endArrow=classic;html=1;rounded=0;exitX=0.433;exitY=1.01;exitDx=0;exitDy=0;exitPerimeter=0;entryX=0;entryY=0.5;entryDx=0;entryDy=0;startArrow=classic;startFill=1;" edge="1" parent="1" source="bqqj-wdb450K67-0vMmF-1" target="bqqj-wdb450K67-0vMmF-3">
          <mxGeometry width="50" height="50" relative="1" as="geometry">
            <mxPoint x="400" y="270" as="sourcePoint" />
            <mxPoint x="450" y="220" as="targetPoint" />
          </mxGeometry>
        </mxCell>
        <mxCell id="bqqj-wdb450K67-0vMmF-22" value="/search&lt;br&gt;/calculate" style="edgeLabel;html=1;align=center;verticalAlign=middle;resizable=0;points=[];" vertex="1" connectable="0" parent="bqqj-wdb450K67-0vMmF-14">
          <mxGeometry x="-0.1623" relative="1" as="geometry">
            <mxPoint x="10" y="7" as="offset" />
          </mxGeometry>
        </mxCell>
        <mxCell id="bqqj-wdb450K67-0vMmF-16" value="" style="endArrow=classic;html=1;rounded=0;exitX=1;exitY=0.5;exitDx=0;exitDy=0;entryX=0.5;entryY=0;entryDx=0;entryDy=0;" edge="1" parent="1" source="bqqj-wdb450K67-0vMmF-2" target="bqqj-wdb450K67-0vMmF-5">
          <mxGeometry width="50" height="50" relative="1" as="geometry">
            <mxPoint x="400" y="270" as="sourcePoint" />
            <mxPoint x="450" y="220" as="targetPoint" />
          </mxGeometry>
        </mxCell>
        <mxCell id="bqqj-wdb450K67-0vMmF-24" value="mqtt_broker:1883" style="edgeLabel;html=1;align=center;verticalAlign=middle;resizable=0;points=[];" vertex="1" connectable="0" parent="bqqj-wdb450K67-0vMmF-16">
          <mxGeometry x="-0.3161" relative="1" as="geometry">
            <mxPoint x="22" y="-9" as="offset" />
          </mxGeometry>
        </mxCell>
        <mxCell id="bqqj-wdb450K67-0vMmF-17" value="" style="endArrow=classic;html=1;rounded=0;exitX=0.5;exitY=1;exitDx=0;exitDy=0;entryX=1;entryY=0.5;entryDx=0;entryDy=0;" edge="1" parent="1" source="bqqj-wdb450K67-0vMmF-5" target="bqqj-wdb450K67-0vMmF-3">
          <mxGeometry width="50" height="50" relative="1" as="geometry">
            <mxPoint x="400" y="270" as="sourcePoint" />
            <mxPoint x="450" y="220" as="targetPoint" />
          </mxGeometry>
        </mxCell>
        <mxCell id="bqqj-wdb450K67-0vMmF-25" value="mqtt_broker:1883" style="edgeLabel;html=1;align=center;verticalAlign=middle;resizable=0;points=[];" vertex="1" connectable="0" parent="bqqj-wdb450K67-0vMmF-17">
          <mxGeometry x="0.2903" relative="1" as="geometry">
            <mxPoint x="21" y="-1" as="offset" />
          </mxGeometry>
        </mxCell>
        <mxCell id="bqqj-wdb450K67-0vMmF-18" value="" style="endArrow=classic;startArrow=classic;html=1;rounded=0;exitX=0.5;exitY=0;exitDx=0;exitDy=0;entryX=0.5;entryY=1;entryDx=0;entryDy=0;" edge="1" parent="1" source="bqqj-wdb450K67-0vMmF-4" target="bqqj-wdb450K67-0vMmF-3">
          <mxGeometry width="50" height="50" relative="1" as="geometry">
            <mxPoint x="400" y="270" as="sourcePoint" />
            <mxPoint x="450" y="220" as="targetPoint" />
          </mxGeometry>
        </mxCell>
        <mxCell id="bqqj-wdb450K67-0vMmF-23" value="database:5432" style="edgeLabel;html=1;align=center;verticalAlign=middle;resizable=0;points=[];" vertex="1" connectable="0" parent="bqqj-wdb450K67-0vMmF-18">
          <mxGeometry x="0.0774" relative="1" as="geometry">
            <mxPoint as="offset" />
          </mxGeometry>
        </mxCell>
        <mxCell id="bqqj-wdb450K67-0vMmF-26" value="User" style="text;html=1;strokeColor=none;fillColor=none;align=center;verticalAlign=middle;whiteSpace=wrap;rounded=0;" vertex="1" parent="1">
          <mxGeometry x="39" y="288" width="60" height="30" as="geometry" />
        </mxCell>
      </root>
    </mxGraphModel>
  </diagram>
</mxfile>
